<?xml version="1.0" encoding="UTF-8"?>
<svg id="a" data-name="图层 1" xmlns="http://www.w3.org/2000/svg" xmlns:xlink="http://www.w3.org/1999/xlink" viewBox="0 0 759 759.84">
  <defs>
    <clipPath id="b">
      <rect x=".12" width="758.88" height="759.84" style="fill: none;"/>
    </clipPath>
    <clipPath id="c">
      <rect x="113.57" y="148" width="504.7" height="505.5" style="fill: none;"/>
    </clipPath>
  </defs>
  <g style="clip-path: url(#b);">
    <path d="M758.83,569.31c0,104.72-84.94,189.57-189.71,189.57H189.72C84.91,758.88,0,674.03,0,569.31V190.18C0,85.48,84.91.6,189.72.6h379.4c104.76,0,189.7,84.88,189.7,189.57v379.13h0ZM758.83,569.31" style="fill: #0c87ff;"/>
  </g>
  <path d="M552.7,61.23c80.08,0,145.23,65.14,145.23,145.22v346.56c0,38.72-15.13,75.17-42.6,102.65-27.47,27.47-63.92,42.6-102.64,42.6H206.1c-80.07,0-145.21-65.16-145.21-145.25V206.45c0-80.07,65.14-145.22,145.21-145.22h346.6M552.7,25.23H206.1C106.18,25.23,24.9,106.52,24.9,206.45v346.56c0,99.95,81.29,181.25,181.21,181.25h346.6c99.93,0,181.24-81.31,181.23-181.25V206.45c0-99.92-81.3-181.22-181.23-181.22h0Z" style="fill: #9cf;"/>
  <g style="clip-path: url(#c);">
    <path d="M127.11,175.63c0-15.06,12.21-27.26,27.26-27.26h163.58c15.06,0,27.26,12.21,27.26,27.26v163.58c0,15.06-12.21,27.26-27.26,27.26h-163.58c-15.06,0-27.26-12.21-27.26-27.26v-163.58ZM181.63,202.89v109.05h109.05v-109.05h-109.05ZM113.48,530.05c0-7.23,2.87-14.17,7.99-19.28l95.42-95.42c10.65-10.65,27.9-10.65,38.55,0l95.42,95.42c10.64,10.65,10.64,27.9,0,38.55l-95.42,95.42c-10.65,10.64-27.9,10.64-38.55,0l-95.42-95.42c-5.11-5.11-7.99-12.05-7.99-19.28h0ZM179.29,530.05l56.87,56.87,56.87-56.87-56.87-56.87-56.87,56.87ZM399.74,448.26c0-15.05,12.21-27.26,27.27-27.26h163.58c15.06,0,27.26,12.21,27.26,27.26v163.58c0,15.06-12.21,27.26-27.26,27.26h-163.58c-15.06,0-27.27-12.21-27.27-27.26v-163.58ZM454.27,475.52v109.05h109.05v-109.05h-109.05ZM454.27,475.52" style="fill: #fff;"/>
  </g>
  <g>
    <polygon points="604.21 230.15 413.37 230.15 413.37 284.68 604.21 284.68 604.21 230.15 604.21 230.15" style="fill: #9cf;"/>
    <polygon points="536.06 162 481.53 162 481.53 352.84 536.06 352.84 536.06 162 536.06 162" style="fill: #9cf;"/>
  </g>
</svg>